<svg width="1024" height="1024" viewBox="0 0 1024 1024" fill="none" xmlns="http://www.w3.org/2000/svg">
  <defs>
    <linearGradient id="mediaFlickDesktopIconGradient" x1="268" y1="220" x2="780" y2="804" gradientUnits="userSpaceOnUse">
      <stop stop-color="#AA5CC3"/>
      <stop offset="1" stop-color="#00A4DC"/>
    </linearGradient>
    <linearGradient id="mediaFlickDesktopIconSurface" x1="184" y1="112" x2="840" y2="912" gradientUnits="userSpaceOnUse">
      <stop stop-color="#2A2A38"/>
      <stop offset="1" stop-color="#1D1D27"/>
    </linearGradient>
  </defs>
  <rect x="96" y="96" width="832" height="832" rx="210" fill="url(#mediaFlickDesktopIconSurface)"/>
  <rect x="96" y="96" width="832" height="832" rx="210" stroke="#626276" stroke-opacity="0.65" stroke-width="24"/>
  <path fill="url(#mediaFlickDesktopIconGradient)" d="M364 292C330 272 288 296 288 336V688C288 728 330 752 364 732L664 556C698 536 698 488 664 468L364 292Z"/>
  <path fill="url(#mediaFlickDesktopIconGradient)" fill-opacity="0.88" d="M680 256H796C836 256 868 288 868 328V444H772V352H680V256Z"/>
  <path fill="#20202B" fill-opacity="0.78" d="M384 404V620L568 512L384 404Z"/>
</svg>
